# xmcd CD database file
#
# Track frame offsets:
#	150
#	18465
#	28965
#	41105
#	57622
#	70542
#	84517
#	94320
#	107135
#	117752
#	130200
#	143957
#	156447
#	169817
#	182385
#	196427
#	208307
#	227230
#	242465
#	258195
#
# Disc length: 3601 seconds
#
# Revision: 4
# Processed by: cddbd v1.5.1PL0 Copyright (c) Steve Scherf et al.
# Submitted via: CDex 1.51
#
DISCID=220e0f14
DTITLE=Various Artist - Big Country Classics Vol. 1
DYEAR=1988
DGENRE=Country
TTITLE0=Johnny Cash - One piece at a time
TTITLE1=Barbra Mandrell - Sleeping single in a double bed
TTITLE2=Charlie Rich - Rollin' with the flow
TTITLE3=Ronnie Milsap - Nobody likes sad songs
TTITLE4=Jerry Lee Lewis - Would you take another chance on me
TTITLE5=Moe and Joe - I cheated me right out of you
TTITLE6=Charley Pride - Somebody loves you honey
TTITLE7=Waylon Jennings - (I'am a) Ramblin' man
TTITLE8=Dolly Parton - Love is like a butterfly
TTITLE9=Don Williams - Some broken hearts never mend
TTITLE10=Billy Crash Craddock - Broken down in tiny pieces
TTITLE11=Hank Williams Jr - Eleven roses
TTITLE12=Conway Twitty - There's a honkytonk angel
TTITLE13=Hank Snow - Hello love
TTITLE14=Jeannie Pruett - Satin sheets
TTITLE15=Johnny Paycheck - Take this job and shove it
TTITLE16=Tom T Hall - Old dogs - Children and water melon wine
TTITLE17=Tammy Wynette - You and me
TTITLE18=Ronnie Milsap - Only one love in my life
TTITLE19=Larry Gatlin and The Gatlin Band - All the gold in California
EXTD=YEAR: 1988
EXTT0=
EXTT1=
EXTT2=
EXTT3=
EXTT4=
EXTT5=
EXTT6=
EXTT7=
EXTT8=
EXTT9=
EXTT10=
EXTT11=
EXTT12=
EXTT13=
EXTT14=
EXTT15=
EXTT16=
EXTT17=
EXTT18=
EXTT19=
PLAYORDER=
